<?xml version="1.0" standalone="no"?>
<!DOCTYPE svg PUBLIC "-//W3C//DTD SVG 20010904//EN"
 "http://www.w3.org/TR/2001/REC-SVG-20010904/DTD/svg10.dtd">
<svg version="1.0" xmlns="http://www.w3.org/2000/svg"
 width="1588.000000pt" height="1588.000000pt" viewBox="0 0 1588.000000 1588.000000"
 preserveAspectRatio="xMidYMid meet">
<metadata>
Created by potrace 1.11, written by Peter Selinger 2001-2013
</metadata>
<g transform="translate(0.000000,1588.000000) scale(0.100000,-0.100000)"
fill="#000000" stroke="none">
<path d="M5025 12122 c-2 -3 -28 -6 -57 -8 -73 -4 -192 -13 -258 -19 -30 -2
-77 -7 -105 -9 -27 -3 -50 -6 -50 -6 0 -1 -16 -3 -35 -5 -19 -1 -53 -6 -75
-10 -22 -4 -53 -8 -70 -10 -68 -8 -214 -43 -335 -80 -47 -15 -89 -27 -95 -29
-5 -1 -14 -4 -20 -7 -5 -4 -23 -9 -40 -13 -16 -4 -43 -13 -60 -21 -16 -7 -52
-20 -80 -30 -44 -16 -94 -36 -160 -65 -64 -28 -116 -49 -122 -49 -3 1 -9 -3
-12 -8 -3 -5 -27 -17 -53 -27 -27 -10 -48 -23 -48 -28 0 -6 -3 -8 -6 -5 -6 5
-123 -53 -209 -104 -16 -10 -44 -25 -61 -33 -17 -8 -35 -19 -38 -25 -4 -6 -14
-11 -22 -11 -8 0 -24 -8 -35 -19 -11 -10 -37 -27 -59 -37 -22 -10 -40 -22 -40
-25 0 -4 -13 -12 -30 -19 -16 -7 -30 -17 -30 -23 0 -6 -3 -8 -6 -4 -3 3 -18
-5 -32 -19 -15 -13 -31 -24 -35 -24 -8 0 -28 -15 -84 -60 -7 -6 -15 -10 -18
-10 -3 0 -11 -5 -18 -11 -7 -5 -44 -34 -82 -62 -108 -79 -268 -211 -385 -316
-156 -141 -435 -426 -500 -511 -14 -18 -36 -45 -50 -59 -20 -20 -124 -149
-183 -226 -4 -5 -25 -33 -47 -61 -22 -29 -40 -56 -40 -62 0 -6 -4 -12 -8 -14
-5 -1 -28 -32 -53 -68 -24 -35 -50 -71 -56 -78 -7 -7 -13 -17 -13 -22 0 -5 -6
-15 -13 -22 -7 -7 -27 -35 -45 -63 -18 -27 -37 -57 -44 -66 -6 -10 -11 -21
-11 -25 -1 -9 -9 -20 -34 -49 -7 -7 -13 -16 -13 -19 0 -3 -18 -35 -40 -71 -22
-36 -40 -67 -40 -70 0 -3 -17 -33 -39 -68 -21 -35 -42 -73 -45 -85 -4 -12 -12
-22 -18 -22 -6 0 -8 -3 -5 -6 4 -4 -2 -19 -12 -33 -23 -35 -131 -254 -131
-268 0 -6 -3 -13 -7 -15 -8 -3 -24 -34 -63 -123 -12 -27 -30 -68 -40 -90 -10
-22 -25 -56 -33 -75 -27 -62 -134 -333 -150 -380 -9 -25 -25 -68 -35 -97 -11
-28 -17 -54 -14 -57 3 -3 0 -6 -6 -6 -7 0 -12 -9 -12 -20 0 -12 -7 -34 -15
-50 -9 -17 -15 -33 -15 -37 0 -5 -7 -29 -15 -54 -9 -25 -17 -54 -19 -65 -3
-10 -12 -39 -21 -64 -9 -25 -18 -52 -20 -60 -2 -8 -15 -55 -30 -105 -14 -49
-28 -97 -30 -105 -19 -77 -37 -148 -42 -160 -3 -8 -7 -22 -8 -30 -1 -8 -7 -33
-13 -55 -6 -22 -13 -51 -16 -65 -2 -14 -5 -25 -6 -25 -2 0 -7 -24 -15 -70 -4
-22 -11 -48 -16 -57 -5 -10 -8 -18 -5 -18 2 0 0 -15 -4 -32 -5 -18 -12 -49
-15 -68 -3 -19 -10 -51 -15 -70 -5 -19 -11 -51 -14 -70 -2 -19 -8 -46 -11 -60
-14 -47 -13 -258 1 -310 35 -134 126 -248 244 -307 61 -30 92 -43 115 -48 6
-2 30 -8 55 -16 25 -7 56 -14 70 -16 42 -7 373 -12 382 -7 4 3 36 7 71 9 34 3
71 6 82 8 11 3 40 8 65 12 25 4 61 11 80 16 19 4 67 15 105 24 117 26 337 92
400 120 17 7 39 15 50 17 11 1 22 5 25 9 3 3 28 13 55 24 28 10 86 35 130 55
44 20 87 40 95 43 44 19 188 102 261 150 121 80 201 161 345 347 70 90 132
170 138 176 6 7 22 26 36 44 33 43 122 152 135 166 5 6 25 29 43 52 19 23 43
51 53 64 66 77 106 124 124 144 11 12 40 46 65 75 44 51 104 118 165 185 17
18 66 72 110 120 100 110 496 506 599 599 97 89 95 86 148 132 151 130 183
157 213 180 6 5 30 24 55 43 25 19 52 40 60 47 159 125 440 307 567 366 26 12
55 27 63 32 8 5 29 15 45 21 17 7 73 29 125 49 52 20 106 39 120 42 22 4 53
11 135 29 50 12 165 13 210 3 88 -20 267 -101 455 -207 25 -14 77 -42 115 -64
39 -21 79 -44 90 -51 79 -49 102 -61 114 -63 8 -2 17 -7 20 -11 3 -5 33 -25
66 -43 33 -19 62 -37 63 -42 2 -4 9 -8 16 -8 7 0 30 -11 49 -25 20 -13 56 -35
80 -48 83 -47 92 -52 97 -58 3 -3 12 -8 20 -12 8 -4 38 -20 65 -37 28 -17 58
-33 68 -37 9 -3 17 -9 17 -14 0 -5 4 -9 9 -9 5 0 59 -29 120 -65 61 -36 118
-68 128 -72 10 -4 20 -9 23 -13 5 -6 62 -39 174 -100 28 -15 78 -42 111 -61
108 -60 218 -118 330 -175 61 -30 117 -60 125 -65 54 -32 489 -229 507 -229 7
0 13 -4 13 -10 0 -5 5 -10 11 -10 10 0 136 -48 224 -85 36 -15 126 -48 140
-51 6 -2 34 -12 63 -22 28 -11 52 -18 52 -15 0 3 7 -1 17 -8 9 -8 17 -13 17
-11 1 2 8 1 16 -2 19 -5 163 -49 170 -51 3 -1 21 -5 40 -9 19 -4 49 -12 65
-17 39 -12 250 -57 295 -63 19 -2 35 -5 35 -6 0 -1 16 -3 35 -5 19 -2 67 -7
105 -12 84 -10 540 -10 645 -1 82 8 98 11 210 34 108 23 279 86 288 107 2 4 8
7 14 7 12 0 102 61 106 72 2 4 8 8 13 8 16 0 102 99 108 123 3 12 5 67 5 122
0 144 -31 265 -132 515 -5 14 -10 27 -10 30 1 11 -178 359 -209 407 -18 29
-33 55 -33 58 0 3 -8 18 -18 33 -35 50 -237 354 -247 371 -5 9 -13 18 -16 21
-15 12 -109 142 -109 151 0 5 -4 9 -8 9 -4 0 -26 24 -47 53 -22 28 -43 54 -46
57 -3 3 -30 34 -59 70 -30 36 -61 72 -69 82 -9 9 -43 47 -76 84 -113 129 -397
408 -569 559 -23 20 -141 120 -154 130 -7 5 -24 20 -37 33 -13 12 -28 22 -34
22 -5 0 -11 4 -13 8 -1 5 -66 55 -143 113 -77 57 -141 107 -143 112 -2 4 -9 7
-16 7 -7 0 -21 8 -32 18 -10 10 -86 61 -169 114 -82 53 -155 101 -162 107 -7
6 -15 11 -18 11 -4 0 -39 19 -78 43 -40 24 -79 47 -87 50 -8 4 -42 22 -75 41
-33 18 -136 72 -230 119 -196 98 -241 119 -410 187 -44 18 -89 36 -100 41 -72
30 -366 135 -405 144 -8 2 -53 15 -100 30 -93 28 -372 102 -422 110 -17 3 -35
8 -39 10 -4 3 -24 7 -45 10 -22 3 -50 8 -64 11 -27 6 -144 28 -200 38 -19 3
-48 8 -65 11 -64 11 -92 15 -135 20 -47 6 -88 11 -155 20 -55 7 -126 14 -210
20 -38 3 -101 8 -140 11 -88 8 -843 13 -850 6z"/>
<path d="M15188 9855 c-1 -1 -55 -5 -118 -9 -63 -3 -131 -8 -150 -11 -19 -2
-53 -7 -75 -9 -43 -5 -99 -16 -165 -31 -14 -3 -38 -8 -54 -11 -16 -2 -32 -7
-36 -9 -4 -2 -22 -7 -41 -10 -19 -3 -50 -11 -69 -17 -19 -7 -37 -13 -40 -13
-31 -7 -103 -29 -132 -40 -21 -8 -38 -12 -38 -9 0 4 -6 2 -12 -3 -7 -6 -38
-18 -68 -28 -30 -10 -59 -21 -65 -25 -5 -5 -13 -9 -18 -9 -4 0 -23 -8 -43 -16
-20 -8 -38 -15 -40 -15 -3 0 -43 -18 -90 -40 -47 -22 -87 -40 -88 -40 -19 0
-309 -174 -342 -205 -6 -5 -29 -23 -50 -40 -21 -16 -45 -38 -54 -48 -8 -10
-26 -31 -40 -46 -14 -15 -34 -41 -45 -56 -21 -29 -173 -224 -204 -260 -9 -11
-23 -29 -31 -41 -14 -20 -84 -105 -105 -128 -6 -6 -26 -31 -45 -56 -19 -25
-40 -49 -46 -55 -5 -5 -30 -35 -55 -65 -24 -30 -46 -57 -50 -60 -3 -3 -34 -39
-69 -80 -35 -41 -73 -85 -84 -97 -12 -11 -39 -42 -61 -68 -46 -54 -62 -71
-205 -226 -155 -168 -630 -639 -644 -639 -2 0 -27 -22 -55 -49 -28 -27 -68
-62 -88 -78 -20 -15 -50 -40 -67 -55 -82 -71 -160 -134 -262 -208 -38 -28 -82
-62 -99 -75 -16 -14 -35 -25 -42 -25 -6 0 -13 -3 -15 -8 -1 -4 -41 -33 -88
-63 -229 -151 -470 -264 -665 -313 -102 -25 -117 -28 -204 -30 -80 -3 -126 5
-196 35 -16 6 -36 13 -43 15 -24 5 -317 156 -320 165 -2 5 -12 9 -22 9 -9 0
-23 7 -30 15 -7 8 -16 15 -21 15 -5 0 -57 29 -116 64 -59 35 -142 83 -183 107
-41 24 -87 50 -101 59 -14 8 -57 33 -95 54 -38 22 -71 42 -74 45 -3 3 -16 12
-29 19 -13 8 -38 22 -55 32 -17 10 -58 33 -91 52 -33 19 -95 55 -137 81 -43
26 -82 47 -88 47 -5 0 -10 5 -10 10 0 6 -4 10 -10 10 -8 0 -240 128 -290 160
-8 5 -28 16 -45 24 -16 9 -84 45 -150 81 -179 98 -705 359 -745 370 -3 0 -27
11 -54 23 -27 12 -50 22 -52 22 -2 0 -26 9 -52 21 -64 29 -79 35 -142 59 -30
12 -64 26 -75 30 -116 46 -369 129 -475 156 -41 10 -77 21 -80 24 -3 3 -12 5
-20 5 -8 -1 -25 2 -38 7 -13 4 -35 10 -50 13 -15 3 -38 7 -52 10 -14 3 -40 8
-59 11 -18 3 -43 8 -55 10 -72 16 -82 18 -221 31 -130 13 -700 7 -700 -7 0 -1
-18 -3 -40 -6 -22 -2 -51 -7 -65 -10 -32 -9 -29 -9 -75 -19 -22 -5 -42 -9 -45
-10 -91 -21 -237 -94 -320 -158 -128 -101 -140 -125 -136 -264 2 -54 6 -111
10 -128 3 -16 9 -41 11 -55 11 -50 48 -167 77 -240 43 -107 49 -125 49 -127
-3 -12 207 -409 249 -473 6 -8 13 -22 17 -30 4 -8 11 -19 15 -25 5 -5 49 -71
97 -145 95 -144 138 -206 159 -230 6 -8 32 -42 57 -75 60 -80 80 -106 102
-132 10 -11 34 -41 53 -64 36 -45 79 -95 184 -213 83 -94 385 -397 470 -471
37 -33 78 -69 90 -80 44 -39 154 -131 210 -175 10 -8 33 -26 50 -41 75 -62
207 -159 216 -159 5 0 15 -8 22 -17 7 -10 25 -24 41 -32 15 -8 27 -18 27 -23
0 -4 7 -8 15 -8 8 0 15 -4 15 -9 0 -5 14 -14 30 -21 17 -7 30 -16 30 -20 0 -4
20 -18 45 -31 25 -13 45 -27 45 -31 0 -5 7 -8 15 -8 8 0 15 -4 15 -10 0 -5 4
-10 10 -10 8 0 110 -61 146 -87 15 -11 53 -34 99 -57 22 -12 42 -24 45 -27 10
-12 490 -259 504 -259 2 0 40 -17 83 -37 43 -20 80 -37 83 -38 6 0 209 -81
255 -101 25 -10 61 -23 85 -29 3 -1 12 -4 20 -8 21 -8 231 -79 244 -82 6 -1
18 -4 26 -8 35 -12 127 -39 150 -44 14 -2 48 -11 75 -19 28 -9 59 -17 70 -19
11 -1 40 -9 65 -16 52 -15 45 -13 90 -22 38 -8 58 -12 135 -28 117 -25 138
-29 146 -23 5 3 9 1 9 -3 0 -5 15 -10 33 -11 18 -1 43 -5 55 -7 49 -11 59 -13
107 -19 28 -4 64 -9 80 -12 17 -2 50 -6 75 -9 25 -2 54 -6 66 -9 11 -2 56 -7
100 -11 43 -3 97 -8 118 -11 140 -17 871 -25 1036 -11 41 4 115 9 164 12 50 3
101 7 115 10 15 2 52 7 83 10 32 3 77 8 100 11 24 3 59 7 78 9 19 3 67 12 105
20 39 9 79 18 90 20 11 3 61 16 110 30 50 14 101 28 114 31 13 2 36 11 52 19
15 8 34 15 42 15 14 0 32 7 187 67 165 65 285 120 455 207 158 82 228 121 267
147 14 11 29 19 34 19 4 0 22 11 40 25 18 14 35 25 39 25 8 0 68 43 77 55 5 6
8 6 8 1 0 -6 9 0 21 12 11 12 24 20 29 17 5 -3 15 3 22 13 7 11 27 26 45 35
17 9 37 22 45 30 7 7 35 28 63 47 27 19 56 40 65 47 8 7 51 41 95 75 79 62
125 100 151 126 8 7 14 11 14 9 0 -3 21 15 48 40 26 24 66 62 90 83 23 22 42
38 42 36 0 -5 285 284 327 333 21 24 54 60 74 81 19 21 57 65 85 99 27 33 52
61 57 61 4 0 7 5 7 10 0 11 9 23 41 58 34 38 119 152 119 161 0 5 4 11 9 13
29 10 463 677 449 690 -2 2 7 17 18 33 12 17 43 73 69 125 27 52 52 98 57 101
6 3 9 9 9 13 -1 3 24 59 56 124 31 64 57 119 58 122 3 9 23 55 69 159 25 57
46 110 46 117 0 8 5 14 10 14 6 0 9 3 8 8 -2 4 6 27 16 52 11 25 20 50 22 55
1 6 12 35 24 65 27 67 101 271 104 285 1 6 4 15 8 20 3 6 9 26 13 45 4 19 11
41 16 50 8 15 69 203 74 230 2 8 11 42 21 75 10 33 19 65 20 70 6 21 14 52 35
130 11 44 22 85 23 90 1 6 5 19 9 30 3 11 8 31 11 45 2 14 14 63 25 110 12 47
24 96 26 110 6 32 10 50 29 135 33 146 36 169 41 290 5 116 -9 193 -50 280
-34 72 -120 160 -190 195 -28 14 -53 30 -57 35 -4 6 -8 7 -8 3 0 -4 -15 -1
-32 7 -45 18 -180 45 -258 51 -36 3 -70 7 -77 9 -6 2 -13 2 -15 0z"/>
</g>
</svg>
